<?xml version="1.0" encoding="utf-8"?>

<svg width="800px" height="800px" viewBox="1 3 22 14" fill="none" xmlns="http://www.w3.org/2000/svg">
  <path
    d="M17 8.21094C19.989 8.93258 22 10.2814 22 11.8262C22 14.1313 17.5228 15.9999 12 15.9999C6.47715 15.9999 2 14.1313 2 11.8262C2 10.2814 4.01099 8.93258 7 8.21094"
    fill="#00d207"
    stroke="#076a00"
    stroke-width="0.8"
    opacity="0.95"
  />
  <path
    d="M7 8.72876C7 6.11714 9.11714 4 11.7288 4H12.2712C14.8829 4 17 6.11714 17 8.72876C17 8.90601 16.9458 9.07918 16.8003 9.18039C16.3862 9.4684 15.1898 10 12 10C8.81016 10 7.6138 9.4684 7.19972 9.18039C7.0542 9.07918 7 8.90601 7 8.72876Z"
    fill="#00d207"
    stroke="#076a00"
    stroke-width="0.6"
    opacity="0.95"
  />
  <ellipse
    cx="12"
    cy="7.2"
    rx="3.2"
    ry="2.2"
    fill="#720000"
    opacity="0.5"
    stroke="#ff0000"
    stroke-width="0.5"
  />
  
  <path
    d="M5 11.8C7.5 13.5 16.5 13.5 19 11.8"
    stroke="#900090"
    stroke-width="0.6"
    opacity="0.25"
  />

  <circle cx="7" cy="12" r="0.9" fill="#890000" />
  <circle cx="12" cy="13" r="1" fill="#3d0000" />
  <circle cx="17" cy="12" r="0.9" fill="#890000" />
</svg>